<svg width="112" height="50" viewBox="0 0 112 50" fill="none" xmlns="http://www.w3.org/2000/svg">
<path d="M0 27.6299H15.534V43.1639H0V27.6299Z" fill="#FFBA00"/>
<path d="M51.4609 27.6299H66.995L51.4609 43.1639V27.6299Z" fill="#FFBA00"/>
<path d="M51.4609 27.6299H66.995L51.4609 43.1639V27.6299Z" fill="#FFBA00"/>
<path d="M7.43537 19.5364C5.88634 19.5364 4.55619 19.1963 3.44492 18.5162C2.34039 17.836 1.48842 16.8965 0.889012 15.6978C0.296337 14.4924 0 13.1051 0 11.536C0 9.96013 0.303072 8.56948 0.909217 7.36403C1.51536 6.15185 2.3707 5.20903 3.47523 4.5356C4.58649 3.85543 5.89981 3.51534 7.41517 3.51534C8.6746 3.51534 9.78923 3.74768 10.7591 4.21235C11.7356 4.67028 12.5135 5.32015 13.0927 6.16195C13.6719 6.99701 14.0019 7.97349 14.0828 9.0914H10.5873C10.4459 8.34388 10.1091 7.72095 9.57708 7.22261C9.05176 6.71753 8.34796 6.46499 7.46568 6.46499C6.7181 6.46499 6.06145 6.66702 5.49571 7.07109C4.92998 7.46841 4.48884 8.04084 4.1723 8.78835C3.86249 9.53587 3.70758 10.4315 3.70758 11.4754C3.70758 12.5327 3.86249 13.4418 4.1723 14.2028C4.4821 14.957 4.91651 15.5396 5.47551 15.9504C6.04124 16.3544 6.70463 16.5564 7.46568 16.5564C8.00448 16.5564 8.48602 16.4554 8.91032 16.2534C9.34136 16.0446 9.70168 15.745 9.99128 15.3544C10.2809 14.9638 10.4796 14.489 10.5873 13.93H14.0828C13.9952 15.0277 13.6719 16.0009 13.1129 16.8494C12.5539 17.6912 11.7929 18.3512 10.8298 18.8293C9.86668 19.3007 8.73522 19.5364 7.43537 19.5364Z" fill="#FFBA00"/>
<path d="M16.5167 19.2334V3.71737H20.0627V6.30337H20.2243C20.5072 5.4077 20.9921 4.71743 21.6791 4.23255C22.3728 3.74094 23.1641 3.49514 24.0531 3.49514C24.2552 3.49514 24.4808 3.50524 24.73 3.52544C24.9859 3.53891 25.1981 3.56248 25.3664 3.59615V6.95997C25.2115 6.9061 24.9657 6.85895 24.629 6.81855C24.299 6.77141 23.979 6.74784 23.6692 6.74784C23.0025 6.74784 22.4031 6.89263 21.871 7.1822C21.3457 7.46505 20.9315 7.85901 20.6284 8.36409C20.3253 8.86916 20.1738 9.45169 20.1738 10.1117V19.2334H16.5167Z" fill="#FFBA00"/>
<path d="M33.4578 19.5364C31.902 19.5364 30.5584 19.2132 29.4269 18.5667C28.3022 17.9134 27.4367 16.9908 26.8306 15.7988C26.2244 14.6001 25.9214 13.1893 25.9214 11.5663C25.9214 9.97023 26.2244 8.56948 26.8306 7.36403C27.4435 6.15185 28.2988 5.20903 29.3966 4.5356C30.4944 3.85543 31.7841 3.51534 33.2658 3.51534C34.2222 3.51534 35.1247 3.67023 35.9733 3.98001C36.8286 4.28306 37.5829 4.75446 38.2362 5.39423C38.8962 6.03399 39.4148 6.84885 39.792 7.83881C40.1691 8.82203 40.3577 9.99381 40.3577 11.3541V12.4754H27.6388V10.0106H36.8522C36.8454 9.31027 36.6939 8.68734 36.3976 8.14185C36.1012 7.58963 35.687 7.15527 35.155 6.83875C34.6296 6.52224 34.0168 6.36398 33.3163 6.36398C32.5688 6.36398 31.9121 6.54581 31.3464 6.90946C30.7806 7.26638 30.3395 7.73779 30.0229 8.32368C29.7131 8.90284 29.5549 9.53923 29.5481 10.2329V12.3845C29.5481 13.2869 29.7131 14.0614 30.0431 14.7079C30.3732 15.3476 30.8345 15.8392 31.4272 16.1827C32.0199 16.5194 32.7136 16.6878 33.5083 16.6878C34.0403 16.6878 34.5219 16.6137 34.9529 16.4655C35.384 16.3106 35.7577 16.085 36.0743 15.7887C36.3908 15.4924 36.6299 15.1254 36.7916 14.6877L40.2062 15.0715C39.9907 15.9739 39.5798 16.7618 38.9737 17.4353C38.3743 18.102 37.6065 18.6205 36.6703 18.9909C35.7342 19.3546 34.6633 19.5364 33.4578 19.5364Z" fill="#FFBA00"/>
<path d="M47.3479 19.5465C46.3646 19.5465 45.4789 19.3714 44.6909 19.0212C43.9097 18.6643 43.2901 18.139 42.8321 17.4454C42.3809 16.7517 42.1552 15.8965 42.1552 14.8796C42.1552 14.0041 42.3169 13.2802 42.6401 12.7078C42.9634 12.1353 43.4046 11.6774 43.9636 11.3339C44.5226 10.9905 45.1523 10.7312 45.8527 10.5561C46.5599 10.3743 47.2906 10.243 48.0449 10.1622C48.9542 10.0679 49.6916 9.9837 50.2574 9.90962C50.8231 9.82881 51.2339 9.70759 51.4899 9.54597C51.7525 9.37761 51.8839 9.11833 51.8839 8.76815V8.70754C51.8839 7.94656 51.6582 7.3573 51.207 6.93977C50.7557 6.52224 50.1058 6.31347 49.2572 6.31347C48.3615 6.31347 47.6509 6.50877 47.1256 6.89936C46.607 7.28995 46.2568 7.75126 46.075 8.28327L42.6604 7.7984C42.9297 6.85559 43.3743 6.06767 43.9939 5.43464C44.6135 4.79487 45.3712 4.31673 46.2669 4.00022C47.1627 3.67697 48.1527 3.51534 49.237 3.51534C49.9846 3.51534 50.7288 3.60289 51.4697 3.77798C52.2105 3.95307 52.8874 4.24265 53.5002 4.64671C54.1131 5.04404 54.6048 5.58616 54.9752 6.27306C55.3523 6.95997 55.5409 7.8186 55.5409 8.84896V19.2334H52.0253V17.1019H51.9041C51.6818 17.5329 51.3686 17.937 50.9645 18.3141C50.5672 18.6845 50.0654 18.9842 49.4593 19.2132C48.8599 19.4354 48.1561 19.5465 47.3479 19.5465ZM48.2975 16.8595C49.0316 16.8595 49.6681 16.7147 50.2069 16.4251C50.7456 16.1288 51.1598 15.7382 51.4494 15.2533C51.7458 14.7685 51.894 14.2398 51.894 13.6674V11.839C51.7795 11.9333 51.5841 12.0208 51.308 12.1017C51.0386 12.1825 50.7355 12.2532 50.3988 12.3138C50.062 12.3744 49.7287 12.4283 49.3987 12.4754C49.0686 12.5226 48.7824 12.563 48.54 12.5966C47.9944 12.6707 47.5061 12.7919 47.0751 12.9603C46.6441 13.1287 46.304 13.3644 46.0548 13.6674C45.8056 13.9637 45.681 14.3476 45.681 14.819C45.681 15.4924 45.9268 16.0009 46.4185 16.3443C46.9101 16.6878 47.5364 16.8595 48.2975 16.8595Z" fill="#FFBA00"/>
<path d="M66.3978 3.71737V6.54581H57.4774V3.71737H66.3978ZM59.6797 0H63.3368V14.5664C63.3368 15.0581 63.4108 15.4352 63.559 15.6978C63.7139 15.9537 63.916 16.1288 64.1651 16.2231C64.4143 16.3174 64.6905 16.3645 64.9935 16.3645C65.2225 16.3645 65.4313 16.3477 65.6199 16.314C65.8152 16.2803 65.9634 16.25 66.0644 16.2231L66.6806 19.0818C66.4853 19.1492 66.2058 19.2233 65.8421 19.3041C65.4852 19.3849 65.0474 19.432 64.5288 19.4455C63.6129 19.4724 62.7879 19.3344 62.0537 19.0313C61.3196 18.7215 60.7371 18.2434 60.306 17.5969C59.8817 16.9504 59.673 16.1423 59.6797 15.1725V0Z" fill="#FFBA00"/>
<path d="M86.0125 19.2334V3.71737H89.5585V6.30337H89.7201C90.003 5.4077 90.4879 4.71743 91.1749 4.23255C91.8686 3.74094 92.6599 3.49514 93.5489 3.49514C93.751 3.49514 93.9766 3.50524 94.2258 3.52544C94.4817 3.53891 94.6939 3.56248 94.8623 3.59615V6.95997C94.7074 6.9061 94.4615 6.85895 94.1248 6.81855C93.7948 6.77141 93.4749 6.74784 93.165 6.74784C92.4983 6.74784 91.8989 6.89263 91.3668 7.1822C90.8415 7.46505 90.4273 7.85901 90.1242 8.36409C89.8212 8.86916 89.6696 9.45169 89.6696 10.1117V19.2334H86.0125Z" fill="#FFBA00"/>
<path d="M108.987 7.8186L105.653 8.18226C105.559 7.84554 105.394 7.52903 105.158 7.23271C104.929 6.9364 104.62 6.69733 104.229 6.5155C103.838 6.33367 103.36 6.24276 102.794 6.24276C102.033 6.24276 101.394 6.40775 100.875 6.73774C100.363 7.06772 100.111 7.49535 100.117 8.02063C100.111 8.47184 100.276 8.83886 100.612 9.1217C100.956 9.40455 101.522 9.63688 102.31 9.81871L104.956 10.3844C106.425 10.7009 107.516 11.2026 108.23 11.8895C108.95 12.5764 109.314 13.4755 109.321 14.5866C109.314 15.5631 109.028 16.4251 108.462 17.1726C107.903 17.9134 107.125 18.4926 106.128 18.9101C105.131 19.3276 103.987 19.5364 102.693 19.5364C100.794 19.5364 99.2654 19.1391 98.1069 18.3444C96.9485 17.543 96.2582 16.4285 96.0359 15.0008L99.6021 14.6574C99.7637 15.3577 100.107 15.8864 100.633 16.2433C101.158 16.6002 101.841 16.7787 102.683 16.7787C103.552 16.7787 104.249 16.6002 104.775 16.2433C105.307 15.8864 105.573 15.4453 105.573 14.92C105.573 14.4755 105.401 14.1085 105.057 13.8189C104.721 13.5293 104.195 13.3071 103.481 13.1522L100.835 12.5966C99.3462 12.2869 98.245 11.7649 97.5311 11.0309C96.8172 10.2901 96.4636 9.35404 96.4704 8.22267C96.4636 7.26639 96.7229 6.43806 97.2482 5.73768C97.7803 5.03057 98.5178 4.48509 99.4607 4.10123C100.41 3.71064 101.505 3.51534 102.744 3.51534C104.562 3.51534 105.994 3.90257 107.037 4.67702C108.088 5.45147 108.738 6.49867 108.987 7.8186Z" fill="#FFBA00"/>
<path d="M25.4504 49.2918C24.1371 49.2918 23.009 49.1133 22.0661 48.7564C21.1232 48.4062 20.3655 47.9348 19.793 47.3422C19.2206 46.7496 18.8232 46.093 18.6009 45.3724L21.8943 44.5744C22.0425 44.8774 22.258 45.1771 22.5409 45.4734C22.8237 45.7765 23.2043 46.0256 23.6825 46.2209C24.1674 46.423 24.7769 46.524 25.511 46.524C26.5482 46.524 27.4069 46.2714 28.0871 45.7664C28.7673 45.268 29.1074 44.4464 29.1074 43.3016V40.362H28.9256C28.737 40.7392 28.4609 41.1264 28.0972 41.5237C27.7403 41.921 27.2654 42.2544 26.6728 42.5238C26.0868 42.7931 25.3493 42.9278 24.4603 42.9278C23.2683 42.9278 22.1873 42.6484 21.2175 42.0894C20.2544 41.5237 19.4866 40.6819 18.9141 39.564C18.3484 38.4394 18.0655 37.0319 18.0655 35.3416C18.0655 33.6378 18.3484 32.2 18.9141 31.0282C19.4866 29.8497 20.2577 28.9574 21.2276 28.3513C22.1974 27.7385 23.2784 27.432 24.4704 27.432C25.3797 27.432 26.1272 27.5869 26.7132 27.8967C27.3058 28.1998 27.7773 28.5668 28.1275 28.9978C28.4777 29.422 28.7438 29.8227 28.9256 30.1999H29.1276V27.6341H32.7342V43.4026C32.7342 44.7293 32.4177 45.827 31.7846 46.6957C31.1515 47.5644 30.2861 48.2143 29.1883 48.6453C28.0905 49.0763 26.8445 49.2918 25.4504 49.2918ZM25.4807 40.059C26.2552 40.059 26.9152 39.8704 27.4608 39.4933C28.0063 39.1162 28.4205 38.5741 28.7034 37.8669C28.9862 37.1598 29.1276 36.3113 29.1276 35.3214C29.1276 34.3449 28.9862 33.4896 28.7034 32.7556C28.4272 32.0215 28.0164 31.4525 27.4709 31.0484C26.9321 30.6376 26.2687 30.4322 25.4807 30.4322C24.6658 30.4322 23.9855 30.6443 23.44 31.0686C22.8945 31.4929 22.4836 32.0754 22.2075 32.8162C21.9314 33.5502 21.7933 34.3853 21.7933 35.3214C21.7933 36.2709 21.9314 37.1026 22.2075 37.8164C22.4904 38.5235 22.9046 39.0758 23.4501 39.4731C24.0024 39.8637 24.6792 40.059 25.4807 40.059Z" fill="#FFBA00"/>
<path d="M40.3785 43.4632C39.3952 43.4632 38.5096 43.2881 37.7216 42.9379C36.9403 42.581 36.3207 42.0557 35.8627 41.3621C35.4115 40.6684 35.1859 39.8132 35.1859 38.7963C35.1859 37.9208 35.3475 37.1969 35.6708 36.6245C35.9941 36.052 36.4352 35.5941 36.9942 35.2506C37.5532 34.9072 38.1829 34.6479 38.8833 34.4728C39.5905 34.291 40.3213 34.1597 41.0756 34.0789C41.9848 33.9846 42.7223 33.9004 43.288 33.8263C43.8537 33.7455 44.2646 33.6243 44.5205 33.4627C44.7831 33.2943 44.9145 33.035 44.9145 32.6848V32.6242C44.9145 31.8633 44.6889 31.274 44.2376 30.8565C43.7864 30.4389 43.1365 30.2302 42.2879 30.2302C41.3921 30.2302 40.6816 30.4255 40.1562 30.8161C39.6377 31.2067 39.2874 31.668 39.1056 32.2L35.691 31.7151C35.9604 30.7723 36.4049 29.9844 37.0245 29.3513C37.6441 28.7116 38.4018 28.2334 39.2975 27.9169C40.1933 27.5937 41.1833 27.432 42.2676 27.432C43.0152 27.432 43.7594 27.5196 44.5003 27.6947C45.2411 27.8698 45.918 28.1593 46.5309 28.5634C47.1437 28.9607 47.6354 29.5029 48.0058 30.1898C48.383 30.8767 48.5716 31.7353 48.5716 32.7657V43.1501H45.0559V41.0186H44.9347C44.7124 41.4496 44.3993 41.8537 43.9952 42.2308C43.5978 42.6012 43.096 42.9009 42.4899 43.1299C41.8905 43.3521 41.1867 43.4632 40.3785 43.4632ZM41.3281 40.7762C42.0622 40.7762 42.6987 40.6314 43.2375 40.3418C43.7763 40.0455 44.1905 39.6549 44.4801 39.17C44.7764 38.6852 44.9246 38.1565 44.9246 37.5841V35.7557C44.8101 35.85 44.6148 35.9375 44.3386 36.0184C44.0692 36.0992 43.7662 36.1699 43.4294 36.2305C43.0927 36.2911 42.7593 36.345 42.4293 36.3921C42.0993 36.4393 41.813 36.4797 41.5706 36.5133C41.0251 36.5874 40.5368 36.7086 40.1057 36.877C39.6747 37.0454 39.3346 37.2811 39.0854 37.5841C38.8362 37.8804 38.7116 38.2643 38.7116 38.7357C38.7116 39.4091 38.9574 39.9176 39.4491 40.261C39.9407 40.6045 40.5671 40.7762 41.3281 40.7762Z" fill="#FFBA00"/>
<path d="M77.2687 27.6341V30.4625H68.3483V27.6341H77.2687ZM70.5506 23.9167H74.2077V38.4831C74.2077 38.9747 74.2818 39.3519 74.4299 39.6145C74.5848 39.8704 74.7869 40.0455 75.0361 40.1398C75.2853 40.2341 75.5614 40.2812 75.8645 40.2812C76.0935 40.2812 76.3023 40.2644 76.4908 40.2307C76.6861 40.197 76.8343 40.1667 76.9353 40.1398L77.5516 42.9985C77.3563 43.0659 77.0768 43.14 76.7131 43.2208C76.3561 43.3016 75.9184 43.3487 75.3998 43.3622C74.4838 43.3891 73.6588 43.2511 72.9247 42.948C72.1906 42.6382 71.608 42.1601 71.177 41.5136C70.7527 40.8671 70.5439 40.059 70.5506 39.0892V23.9167Z" fill="#FFBA00"/>
<path d="M86.6279 43.4531C85.0721 43.4531 83.7285 43.1299 82.597 42.4834C81.4723 41.8301 80.6069 40.9075 80.0007 39.7155C79.3946 38.5168 79.0915 37.106 79.0915 35.483C79.0915 33.8869 79.3946 32.4862 80.0007 31.2807C80.6136 30.0685 81.4689 29.1257 82.5667 28.4523C83.6645 27.7721 84.9543 27.432 86.436 27.432C87.3923 27.432 88.2948 27.5869 89.1434 27.8967C89.9987 28.1998 90.753 28.6712 91.4063 29.3109C92.0664 29.9507 92.585 30.7656 92.9621 31.7555C93.3393 32.7387 93.5278 33.9105 93.5278 35.2708V36.3921H80.8089V33.9273H90.0223C90.0156 33.227 89.864 32.604 89.5677 32.0585C89.2714 31.5063 88.8572 31.072 88.3251 30.7554C87.7998 30.4389 87.1869 30.2807 86.4865 30.2807C85.7389 30.2807 85.0822 30.4625 84.5165 30.8262C83.9508 31.1831 83.5096 31.6545 83.1931 32.2404C82.8833 32.8195 82.725 33.4559 82.7183 34.1496V36.3012C82.7183 37.2036 82.8833 37.9781 83.2133 38.6246C83.5433 39.2643 84.0046 39.7559 84.5973 40.0994C85.19 40.4361 85.8837 40.6045 86.6784 40.6045C87.2105 40.6045 87.692 40.5304 88.1231 40.3822C88.5541 40.2273 88.9279 40.0017 89.2444 39.7054C89.561 39.4091 89.8001 39.0421 89.9617 38.6044L93.3763 38.9882C93.1608 39.8906 92.75 40.6785 92.1438 41.352C91.5444 42.0187 90.7766 42.5372 89.8405 42.9076C88.9043 43.2713 87.8335 43.4531 86.6279 43.4531Z" fill="#FFBA00"/>
<path d="M25.4493 49.2911C24.136 49.2911 23.0079 49.1127 22.065 48.7557C21.1221 48.4056 20.3644 47.9342 19.792 47.3415C19.2195 46.7489 18.8221 46.0923 18.5999 45.3717L21.8933 44.5737C22.0414 44.8768 22.257 45.1764 22.5398 45.4727C22.8227 45.7758 23.2032 46.025 23.6814 46.2203C24.1663 46.4223 24.7758 46.5233 25.5099 46.5233C26.5471 46.5233 27.4058 46.2708 28.086 45.7657C28.7663 45.2673 29.1064 44.4457 29.1064 43.3009V40.3614H28.9245C28.736 40.7385 28.4598 41.1257 28.0962 41.523C27.7392 41.9204 27.2644 42.2537 26.6717 42.5231C26.0858 42.7925 25.3483 42.9272 24.4593 42.9272C23.2672 42.9272 22.1862 42.6477 21.2164 42.0887C20.2533 41.523 19.4855 40.6812 18.9131 39.5633C18.3473 38.4387 18.0645 37.0312 18.0645 35.3409C18.0645 33.6371 18.3473 32.1993 18.9131 31.0275C19.4855 29.849 20.2567 28.9567 21.2265 28.3506C22.1963 27.7378 23.2773 27.4314 24.4694 27.4314C25.3786 27.4314 26.1262 27.5863 26.7121 27.896C27.3048 28.1991 27.7762 28.5661 28.1265 28.9971C28.4767 29.4214 28.7427 29.8221 28.9245 30.1992H29.1266V27.6334H32.7332V43.4019C32.7332 44.7286 32.4166 45.8263 31.7835 46.695C31.1504 47.5638 30.285 48.2136 29.1872 48.6446C28.0894 49.0756 26.8435 49.2911 25.4493 49.2911ZM25.4796 40.0583C26.2541 40.0583 26.9142 39.8697 27.4597 39.4926C28.0052 39.1155 28.4194 38.5734 28.7023 37.8663C28.9852 37.1592 29.1266 36.3106 29.1266 35.3207C29.1266 34.3442 28.9852 33.4889 28.7023 32.7549C28.4262 32.0208 28.0153 31.4518 27.4698 31.0477C26.931 30.6369 26.2676 30.4315 25.4796 30.4315C24.6647 30.4315 23.9845 30.6437 23.4389 31.0679C22.8934 31.4922 22.4826 32.0747 22.2064 32.8155C21.9303 33.5495 21.7922 34.3846 21.7922 35.3207C21.7922 36.2702 21.9303 37.1019 22.2064 37.8158C22.4893 38.5229 22.9035 39.0751 23.449 39.4724C24.0013 39.863 24.6782 40.0583 25.4796 40.0583Z" fill="#FFBA00"/>
<path d="M40.3775 43.4625C39.3942 43.4625 38.5085 43.2874 37.7205 42.9372C36.9393 42.5803 36.3196 42.055 35.8617 41.3614C35.4104 40.6678 35.1848 39.8125 35.1848 38.7956C35.1848 37.9201 35.3464 37.1962 35.6697 36.6238C35.993 36.0514 36.4341 35.5934 36.9931 35.25C37.5521 34.9065 38.1819 34.6472 38.8823 34.4721C39.5895 34.2903 40.3202 34.159 41.0745 34.0782C41.9837 33.9839 42.7212 33.8997 43.2869 33.8256C43.8527 33.7448 44.2635 33.6236 44.5194 33.462C44.7821 33.2936 44.9134 33.0344 44.9134 32.6842V32.6236C44.9134 31.8626 44.6878 31.2733 44.2366 30.8558C43.7853 30.4383 43.1354 30.2295 42.2868 30.2295C41.3911 30.2295 40.6805 30.4248 40.1552 30.8154C39.6366 31.206 39.2864 31.6673 39.1045 32.1993L35.6899 31.7144C35.9593 30.7716 36.4038 29.9837 37.0235 29.3507C37.6431 28.7109 38.4007 28.2327 39.2965 27.9162C40.1922 27.593 41.1823 27.4314 42.2666 27.4314C43.0142 27.4314 43.7584 27.5189 44.4992 27.694C45.2401 27.8691 45.9169 28.1587 46.5298 28.5627C47.1427 28.9601 47.6343 29.5022 48.0048 30.1891C48.3819 30.876 48.5705 31.7346 48.5705 32.765V43.1494H45.0549V41.018H44.9336C44.7114 41.449 44.3982 41.853 43.9941 42.2301C43.5968 42.6005 43.095 42.9002 42.4889 43.1292C41.8894 43.3514 41.1856 43.4625 40.3775 43.4625ZM41.3271 40.7755C42.0612 40.7755 42.6976 40.6307 43.2364 40.3411C43.7752 40.0448 44.1894 39.6542 44.479 39.1694C44.7754 38.6845 44.9235 38.1558 44.9235 37.5834V35.755C44.809 35.8493 44.6137 35.9369 44.3376 36.0177C44.0682 36.0985 43.7651 36.1692 43.4284 36.2298C43.0916 36.2904 42.7583 36.3443 42.4282 36.3914C42.0982 36.4386 41.812 36.479 41.5695 36.5127C41.024 36.5867 40.5357 36.708 40.1047 36.8763C39.6736 37.0447 39.3335 37.2804 39.0843 37.5834C38.8352 37.8797 38.7106 38.2636 38.7106 38.735C38.7106 39.4084 38.9564 39.9169 39.448 40.2603C39.9397 40.6038 40.566 40.7755 41.3271 40.7755Z" fill="#FFBA00"/>
<path d="M77.2677 27.6334V30.4618H68.3473V27.6334H77.2677ZM70.5496 23.916H74.2067V38.4825C74.2067 38.9741 74.2807 39.3512 74.4289 39.6138C74.5838 39.8697 74.7859 40.0448 75.0351 40.1391C75.2842 40.2334 75.5604 40.2805 75.8635 40.2805C76.0924 40.2805 76.3012 40.2637 76.4898 40.23C76.6851 40.1964 76.8333 40.1661 76.9343 40.1391L77.5506 42.9979C77.3552 43.0652 77.0757 43.1393 76.7121 43.2201C76.3551 43.3009 75.9173 43.348 75.3987 43.3615C74.4828 43.3885 73.6578 43.2504 72.9237 42.9474C72.1895 42.6376 71.607 42.1594 71.1759 41.5129C70.7516 40.8664 70.5429 40.0583 70.5496 39.0886V23.916Z" fill="#FFBA00"/>
<path d="M86.6269 43.4524C85.0711 43.4524 83.7275 43.1292 82.596 42.4827C81.4713 41.8294 80.6058 40.9068 79.9997 39.7149C79.3935 38.5161 79.0905 37.1053 79.0905 35.4823C79.0905 33.8863 79.3935 32.4855 79.9997 31.2801C80.6126 30.0679 81.4679 29.1251 82.5657 28.4516C83.6635 27.7714 84.9532 27.4314 86.4349 27.4314C87.3913 27.4314 88.2938 27.5863 89.1424 27.896C89.9977 28.1991 90.752 28.6705 91.4053 29.3102C92.0653 29.95 92.5839 30.7649 92.9611 31.7548C93.3382 32.738 93.5268 33.9098 93.5268 35.2702V36.3914H80.8079V33.9267H90.0213C90.0146 33.2263 89.863 32.6034 89.5667 32.0579C89.2703 31.5057 88.8561 31.0713 88.3241 30.7548C87.7988 30.4383 87.1859 30.28 86.4854 30.28C85.7379 30.28 85.0812 30.4618 84.5155 30.8255C83.9497 31.1824 83.5086 31.6538 83.192 32.2397C82.8822 32.8189 82.724 33.4553 82.7172 34.1489V36.3005C82.7172 37.2029 82.8822 37.9774 83.2123 38.6239C83.5423 39.2636 84.0036 39.7553 84.5963 40.0987C85.189 40.4354 85.8827 40.6038 86.6774 40.6038C87.2094 40.6038 87.691 40.5297 88.122 40.3816C88.5531 40.2267 88.9268 40.0011 89.2434 39.7047C89.5599 39.4084 89.799 39.0414 89.9607 38.6037L93.3753 38.9875C93.1598 39.8899 92.7489 40.6779 92.1428 41.3513C91.5434 42.018 90.7756 42.5366 89.8394 42.9069C88.9033 43.2706 87.8324 43.4524 86.6269 43.4524Z" fill="#FFBA00"/>
<path d="M84.1981 11.5278C84.1981 15.9485 80.6145 19.5321 76.1938 19.5321C71.7731 19.5321 68.1895 15.9485 68.1895 11.5278C68.1895 7.10711 71.7731 3.52344 76.1938 3.52344C80.6145 3.52344 84.1981 7.10711 84.1981 11.5278Z" fill="#FFBA00"/>
<mask id="mask0_165_711" style="mask-type:alpha" maskUnits="userSpaceOnUse" x="96" y="27" width="16" height="17">
<path d="M96.2305 27.6299H111.765V43.1639H96.2305V27.6299Z" fill="#FFBA00"/>
</mask>
<g mask="url(#mask0_165_711)">
<path d="M111.765 43.1639C111.765 51.7431 104.811 58.698 96.2313 58.698C87.6521 58.698 80.6973 51.7431 80.6973 43.1639C80.6973 34.5847 87.6521 27.6299 96.2313 27.6299C104.811 27.6299 111.765 34.5847 111.765 43.1639Z" fill="#FFBA00"/>
</g>
</svg>
