<svg width="225" height="300" viewBox="0 0 225 300" fill="none" xmlns="http://www.w3.org/2000/svg">
<path d="M-21.5812 9.4689L-70.9779 52.2244L-71.0675 93.9652C-71.0675 93.9652 -19.2982 120.41 -27.0437 204.996C-27.0437 204.996 -26.5364 229.649 -9.79236 259.66L14.8611 259.153L27.5312 229.485L6.96695 152.122C6.96695 152.122 57.5423 212.741 72.585 252.273L105.819 299.969L131.324 294.701L84.7477 197.952L153.171 296.149L172.488 287.982L178.168 266.227C178.168 266.227 148.747 212.041 110.8 169.546L145.531 201.444C145.531 201.444 180.467 239.619 198.658 247.782L209.881 239.962L207.418 212.503L122.415 138.363L220.088 182.835C220.088 182.835 228.252 164.643 222.387 156.227C216.522 147.81 142.651 107.591 142.651 107.591C142.651 107.591 131.861 44.2559 63.6018 0.127077L-21.5812 9.4689Z" fill="#FE5998"/>
</svg>
