<svg width="293" height="368" viewBox="0 0 293 368" fill="none" xmlns="http://www.w3.org/2000/svg">
<path d="M303 113.901L296.061 172.013C296.061 172.013 289.122 162.715 222.046 206.881C222.046 206.881 145.417 199.907 143.243 206.881C141.069 213.854 124.901 185.96 124.901 185.96L131.84 174.338L122.588 160.391L129.527 141.795C129.527 141.795 105.287 130.172 108.155 113.901L57.8244 116.225C57.8244 116.225 11.5649 130.172 9.25191 123.199L-1.18218e-05 106.927L57.8244 86.0066C57.8244 86.0066 143.405 83.8216 151.5 79.1029L180.412 76.7086L161.908 30.2186L180.412 2.14339e-05L196.603 6.97353L198.916 46.4901L217.42 72.0596L303 113.901Z" fill="#FF5F39"/>
<path d="M238.966 201.462L223.932 208.038L282.954 342.971L297.987 336.396L238.966 201.462Z" fill="#007964"/>
<path d="M231.351 204.885C255.071 194.509 265.889 166.866 255.512 143.144C245.136 119.421 217.494 108.601 193.773 118.977C170.052 129.352 159.235 156.995 169.611 180.718C179.988 204.441 207.63 215.261 231.351 204.885Z" fill="white"/>
<path d="M220.031 179.161C229.285 175.113 233.505 164.329 229.457 155.074C225.409 145.82 214.626 141.599 205.372 145.646C196.118 149.694 191.897 160.478 195.946 169.733C199.994 178.988 210.777 183.209 220.031 179.161Z" fill="#FF5F39"/>
<path d="M174.069 199.128C162.679 208.021 160.465 224.441 169.189 236.043C174.361 242.917 182.225 246.563 190.201 246.634C188.058 254.328 189.386 262.884 194.558 269.759C199.73 276.633 207.594 280.279 215.571 280.35C213.427 288.044 214.755 296.6 219.927 303.475C225.1 310.349 232.963 313.995 240.94 314.066C238.796 321.76 240.124 330.316 245.297 337.191C254.021 348.792 270.407 351.215 282.111 342.729L174.061 199.109L174.069 199.128Z" fill="#007964"/>
<path d="M266.04 158.899C280.302 156.571 293.863 166.091 296.46 180.373C297.997 188.837 295.337 197.086 289.974 202.992C297.079 206.64 302.461 213.423 303.998 221.888C305.536 230.353 302.875 238.602 297.512 244.507C304.617 248.156 309.999 254.939 311.536 263.404C313.074 271.868 310.413 280.117 305.05 286.023C312.155 289.671 317.537 296.454 319.074 304.919C321.671 319.201 312.329 332.878 298.152 335.712L266.031 158.88L266.04 158.899Z" fill="#007964"/>
</svg>
