<svg width="318" height="449" viewBox="0 0 318 449" fill="none" xmlns="http://www.w3.org/2000/svg">
<path d="M-29.9697 321.028C-29.9697 321.028 174.326 336.755 192.287 354.716L196.775 314.306L151.873 282.873L115.954 291.851L113.708 285.116C113.708 285.116 192.277 179.606 221.461 163.892L219.215 143.687L203.5 136.951L122.684 208.787L199.009 127.971L201.253 112.256L188.748 102.31C188.748 102.31 129.415 139.192 89.0077 188.58L145.128 110.008L142.882 89.8029L129.412 80.8221L28.3926 186.331L32.879 123.472L44.1015 80.8172L23.8956 65.1011C23.8956 65.1011 -23.2397 233.473 -38.9541 244.697L-29.9697 321.028Z" fill="#2F56DF"/>
<path d="M251.322 321.712C243.841 315.11 233.318 308.155 219.092 303.354C222.314 302.337 225.677 301.177 228.981 299.88C236.171 297.058 243.631 293.38 248.644 288.739C251.181 286.391 253.41 283.507 254.425 280.04C255.491 276.401 255.069 272.621 253.133 268.994L252.735 268.248L252.121 267.669L248.574 271.427C252.121 267.669 252.118 267.666 252.115 267.663L252.108 267.657L252.093 267.643L252.056 267.608C252.028 267.583 251.994 267.552 251.954 267.516C251.874 267.444 251.769 267.351 251.639 267.241C251.378 267.019 251.018 266.725 250.557 266.375C249.635 265.675 248.307 264.752 246.565 263.746C243.078 261.731 237.937 259.387 231.087 257.836C221.768 255.725 209.484 255.125 194.127 258.61C195.196 257.448 196.229 256.264 197.2 255.072C199.353 252.427 201.335 249.577 202.684 246.704C203.998 243.908 204.987 240.508 204.305 237.04C203.556 233.24 201.026 230.418 197.456 228.662C194.088 227.005 189.662 226.198 184.302 226.02C162.587 225.297 146.301 234.003 135.551 242.775C135.448 242.859 135.345 242.943 135.243 243.027C135.429 239.12 134.892 234.889 132.645 231.241C129.401 225.974 123.534 223.334 115.658 223.334C107.825 223.334 101.689 225.715 97.0512 229.55C92.4989 233.314 89.7135 238.207 87.996 242.783C87.8237 243.242 87.6612 243.7 87.5081 244.157C87.4112 244.01 87.3134 243.864 87.2148 243.718C84.7818 240.117 81.5959 236.287 77.6801 233.732C73.6122 231.077 68.4737 229.659 62.8752 231.693C58.3116 233.351 54.8981 236.07 53.5228 240.067C52.6774 242.524 52.7989 244.918 53.3072 246.997C48.8045 246.108 43.4793 245.368 38.0198 245.3C30.7751 245.211 22.7321 246.298 16.0743 250.35C9.13014 254.577 4.28554 261.673 3.11516 272.198C1.9072 283.06 5.94046 291.241 12.6196 296.994C19.0279 302.514 27.6635 305.65 35.8117 307.489C38.9931 308.206 42.1813 308.744 45.2514 309.144C39.2716 312.046 32.6802 315.609 26.3826 319.765C16.9815 325.969 7.75256 333.807 2.43747 343.154C-3.07311 352.844 -4.29419 364.098 2.41357 375.924L2.75974 376.535L3.25612 377.031L6.90872 373.375C3.25612 377.031 3.25942 377.034 3.2628 377.037L3.26997 377.045L3.28581 377.06L3.32347 377.097C3.35123 377.124 3.38431 377.156 3.4227 377.192C3.49946 377.264 3.59754 377.355 3.71682 377.46C3.95523 377.671 4.27932 377.945 4.68807 378.26C5.50432 378.889 6.66677 379.69 8.16649 380.491C11.1743 382.097 15.5465 383.705 21.1572 383.905C28.193 384.156 36.6496 382.192 46.3512 376.064C46.145 376.682 45.9478 377.303 45.7611 377.925C43.93 384.024 42.7402 391.389 45.2866 397.53C46.637 400.787 48.9801 403.544 52.4247 405.412C55.7734 407.227 59.8821 408.054 64.6399 408.054V402.886C64.6399 408.054 64.6438 408.054 64.6477 408.054L64.6562 408.054L64.6747 408.054L64.7184 408.054C64.7505 408.053 64.7886 408.053 64.8326 408.051C64.9205 408.049 65.032 408.046 65.1663 408.039C65.435 408.026 65.7952 408.002 66.2423 407.958C67.1367 407.87 68.3778 407.702 69.9275 407.38C73.0295 406.737 77.3536 405.482 82.5947 403.045C91.0464 399.114 101.784 392.151 113.586 379.858C113.946 382.586 114.518 385.53 115.415 388.466C117.097 393.974 120.049 399.871 125.305 404.087C130.675 408.396 137.864 410.482 147.009 409.376C147.096 409.37 147.202 409.363 147.326 409.352C147.628 409.326 148.04 409.283 148.545 409.215C149.553 409.078 150.943 408.836 152.572 408.408C155.805 407.558 160.127 405.935 164.253 402.818C168.431 399.662 172.322 395.034 174.64 388.386C175.668 385.437 176.365 382.152 176.663 378.495C180.971 382.96 186.418 388.145 192.395 392.733C199.491 398.18 207.83 403.177 216.214 404.72C220.489 405.507 224.926 405.423 229.219 403.904C233.544 402.375 237.38 399.511 240.6 395.289L240.807 395.017L240.977 394.721L236.491 392.155C240.977 394.721 240.98 394.716 240.982 394.711L240.988 394.7L241.001 394.678L241.029 394.628C241.048 394.592 241.07 394.551 241.095 394.505C241.122 394.452 241.153 394.393 241.186 394.327C241.21 394.278 241.236 394.225 241.263 394.169C241.389 393.905 241.541 393.562 241.703 393.141C242.025 392.298 242.384 391.144 242.646 389.701C243.172 386.794 243.285 382.797 241.989 377.917C240.346 371.728 236.516 364.383 228.825 356.14C230.484 356.466 232.173 356.764 233.869 357.022C240.668 358.054 248.166 358.522 254.28 357.014C257.391 356.246 260.503 354.881 262.938 352.477C265.471 349.976 266.917 346.695 267.158 342.845L267.245 341.455L266.621 340.21L262 342.522C266.621 340.21 266.62 340.207 266.619 340.204L266.616 340.198L266.608 340.184L266.589 340.146C266.574 340.117 266.555 340.08 266.532 340.035C266.485 339.946 266.422 339.828 266.342 339.68C266.181 339.386 265.951 338.978 265.647 338.471C265.04 337.458 264.139 336.046 262.91 334.353C260.454 330.967 256.68 326.441 251.322 321.712ZM119.36 328.37C115.877 329.3 112.206 330.982 108.316 333.506C108.457 331.428 108.286 329.243 107.556 327.113C106.465 323.931 104.263 321.284 100.962 319.493C97.9529 317.861 94.1101 316.981 89.3703 316.829C89.6621 316.372 89.9374 315.901 90.1925 315.415C91.42 313.079 92.2248 310.328 92.0834 307.261C91.9762 304.936 91.3345 302.629 90.1655 300.375C91.6587 300.875 93.3245 301.072 95.1559 300.781C97.6179 300.39 99.8212 299.182 101.819 297.356C102.262 297.971 102.768 298.566 103.346 299.122C106.463 302.119 110.857 303.206 116.003 301.726C117.676 301.245 119.44 300.494 121.31 299.456C121.34 299.674 121.376 299.891 121.417 300.107C121.819 302.202 122.8 304.468 124.836 306.237C126.863 307.999 129.429 308.828 132.188 309.001C135.137 309.186 138.677 308.647 142.91 307.351C142.913 308.13 142.982 308.931 143.137 309.745C144.042 314.528 147.536 318.272 153.317 320.563C156.065 321.653 159.438 322.47 163.543 322.981C163 326.649 164.584 330.452 167.159 334.025C167.36 334.303 167.57 334.585 167.789 334.87C162.881 334.681 157.486 335.577 152.827 338.976C150.998 340.31 149.393 341.949 148.024 343.897C146.335 340.454 144.079 336.891 141.089 333.966C135.943 328.931 128.66 325.887 119.36 328.37ZM79.6233 289.347C79.606 289.335 79.5886 289.323 79.5713 289.311C79.5798 289.306 79.5882 289.3 79.5967 289.295C79.6055 289.312 79.6144 289.33 79.6233 289.347Z" stroke="white" stroke-width="10.3356"/>
</svg>
