<svg width="290" height="344" viewBox="0 0 290 344" fill="none" xmlns="http://www.w3.org/2000/svg">
<path d="M-8.25972 303.475C-8.25972 303.475 233.867 322.114 255.154 343.401L260.473 295.509L207.256 258.255L164.685 268.896L162.024 260.913C162.024 260.913 255.142 135.865 289.731 117.242L287.069 93.2949L268.443 85.3116L172.662 170.449L263.121 74.6684L265.781 56.0435L250.96 44.2557C250.96 44.2557 180.639 87.9673 132.75 146.501L199.263 53.379L196.6 29.4323L180.635 18.7885L60.91 143.836L66.2272 69.3357L79.5279 18.7827L55.5803 0.156211C55.5803 0.156211 -0.2835 199.707 -18.9078 213.01L-8.25972 303.475Z" fill="#FFBA00"/>
</svg>
