<svg width="284" height="449" viewBox="0 0 284 449" fill="none" xmlns="http://www.w3.org/2000/svg">
<path d="M168.891 97.6324L154.457 278.704" stroke="#197865" stroke-width="22" stroke-miterlimit="10"/>
<path d="M61.2803 150.341L197.24 270.818" stroke="#197865" stroke-width="22" stroke-miterlimit="10"/>
<path d="M63.0142 160.297C71.2767 156.197 74.6511 146.174 70.5509 137.911C66.4508 129.648 56.4288 126.273 48.1663 130.373C39.9037 134.472 36.5294 144.495 40.6295 152.758C44.7297 161.021 54.7516 164.396 63.0142 160.297Z" fill="#F5BD33"/>
<path d="M176.563 109.576C184.826 105.476 188.2 95.4538 184.1 87.1905C180 78.9272 169.978 75.552 161.716 79.6518C153.453 83.7516 150.079 93.7739 154.179 102.037C158.279 110.3 168.301 113.676 176.563 109.576Z" fill="#F5BD33"/>
<path d="M116.327 32.0052L157.925 241.13" stroke="#197865" stroke-width="22" stroke-miterlimit="10"/>
<path d="M123.654 46.4635C131.917 42.3637 135.291 32.3415 131.191 24.0782C127.091 15.8149 117.069 12.4397 108.806 16.5395C100.544 20.6393 97.1695 30.6616 101.27 38.9249C105.37 47.1882 115.392 50.5633 123.654 46.4635Z" fill="#EB6696"/>
<path d="M190.587 216.947L134.65 243.556L83.3369 238.7L219.195 174.073L190.587 216.947Z" fill="white"/>
<path d="M292.081 327.294L156.223 391.921L134.65 243.555L190.586 216.947L292.081 327.294Z" fill="#3854D6"/>
<path d="M267.529 378.694L211.592 405.302L156.224 391.922L292.082 327.295L267.529 378.694Z" fill="white"/>
<path d="M318.837 383.537L182.978 448.164L211.592 405.301L267.529 378.693L318.837 383.537Z" fill="#3854D6"/>
</svg>
