<svg width="285" height="342" viewBox="0 0 285 342" fill="none" xmlns="http://www.w3.org/2000/svg">
<path d="M275.024 152.487C259.102 113.319 261.997 62.5466 261.997 62.5466L230.152 43.6881C230.152 43.6881 260.549 185.852 254.76 197.457C254.76 197.457 227.257 42.2374 215.677 40.7868C205.4 39.4957 184.86 35.9271 180.387 35.1438C181.357 32.8953 182.124 30.4436 182.674 27.847C185.468 14.3559 180.821 1.98187 172.296 0.212077C163.77 -1.55772 154.593 7.94405 151.799 21.4351C150.815 26.2077 150.771 30.8353 151.481 34.9117C147.457 34.2008 119.824 29.4137 115.8 32.0974C111.457 34.9987 49.2149 174.261 40.5299 169.909C31.8449 165.557 96.9823 34.9842 96.9823 34.9842L65.1374 43.6881L17.37 107.517L0 159.74C0 159.74 2.89499 229.371 7.23749 229.371C11.58 229.371 33.2056 242.427 53.514 229.371C53.514 229.371 105.667 137.98 112.905 97.3622C112.905 97.3622 111.457 140.882 96.9823 165.543C82.5073 190.204 36.1874 317.861 36.1874 317.861L7.23749 325.114L0 342H91.2213C91.2213 342 147.732 217.244 150.583 182.689C153.435 148.135 170.805 117.671 170.805 117.671C170.805 117.671 162.264 167.922 157.126 182.689C157.126 182.689 117.363 328.436 115.134 342H258.552V322.866L188.16 300.439C188.16 300.439 185.265 152.472 196.845 137.966C196.845 137.966 202.635 126.361 199.74 214.85L204.083 285.932C204.083 285.932 254.745 319.297 270.668 288.834C286.59 258.37 290.932 191.64 275.01 152.472L275.024 152.487Z" fill="#FFBA00"/>
</svg>
