<svg width="587" height="715" viewBox="0 0 587 715" fill="none" xmlns="http://www.w3.org/2000/svg">
<path d="M163.721 176.44C163.721 176.44 205.791 84.7238 217.152 79.4839L199.238 70.5151L177.06 85.9215L175.097 104.057L171.594 103.947C171.594 103.947 136.234 49.6655 133.927 33.499L124.221 31.1011L118.442 37.2185L137.856 86.801L113.515 37.7644L106.631 34.0652L99.9074 38.1349C99.9074 38.1349 106.854 71.8457 122.77 98.9368L96.031 59.6062L86.325 57.2084L79.8895 61.9024L111.44 126.571L83.1623 113.781L65.3695 101.334L54.664 107.997C54.664 107.997 124.423 158.467 126.938 167.663L163.731 176.526L163.721 176.44Z" fill="#FFBA00"/>
<path d="M458.687 200.024C458.687 200.024 416.617 108.308 405.255 103.068L423.17 94.0997L445.348 109.506L447.311 127.642L450.814 127.531C450.814 127.531 486.174 73.2501 488.481 57.0836L498.187 54.6857L503.966 60.8031L484.552 110.386L508.893 61.349L515.777 57.6498L522.501 61.7195C522.501 61.7195 515.554 95.4303 499.638 122.521L526.377 83.1908L536.083 80.793L542.518 85.487L510.968 150.156L539.246 137.366L557.038 124.919L567.744 131.582C567.744 131.582 497.985 182.051 495.47 191.248L458.677 200.111L458.687 200.024Z" fill="#FFBA00"/>
<path d="M522.844 355.644C492.595 281.397 498.095 185.15 498.095 185.15L437.597 149.401C437.597 149.401 495.345 418.892 484.346 440.891C484.346 440.891 432.098 146.651 410.098 143.902C390.574 141.454 351.553 134.689 343.056 133.204C344.898 128.942 346.356 124.295 347.401 119.372C352.708 93.7984 343.881 70.3417 327.684 66.9869C311.487 63.632 294.053 81.6438 288.745 107.218C286.875 116.265 286.793 125.037 288.14 132.764C280.496 131.417 228 122.342 220.355 127.43C212.106 132.929 93.8599 396.92 77.3605 388.67C60.8611 380.42 184.607 132.902 184.607 132.902L124.109 149.401L33.3621 270.397L0.363281 369.393C0.363281 369.393 5.86308 501.389 14.1128 501.389C22.3625 501.389 63.446 526.138 102.027 501.389C102.027 501.389 201.106 328.145 214.855 251.148C214.855 251.148 212.106 333.645 184.607 380.393C157.108 427.141 69.1108 669.132 69.1108 669.132L14.1128 682.882L0.363281 714.891H173.662C173.662 714.891 281.018 478.399 286.435 412.897C291.853 347.394 324.851 289.646 324.851 289.646C324.851 289.646 308.627 384.903 298.865 412.897C298.865 412.897 223.325 689.179 219.09 714.891H491.55V678.62L357.823 636.106C357.823 636.106 352.323 355.616 374.322 328.117C374.322 328.117 385.322 306.118 379.822 473.862L388.072 608.607C388.072 608.607 484.318 671.855 514.567 614.107C544.816 556.359 553.066 429.864 522.817 355.616L522.844 355.644Z" fill="#FFBA00"/>
</svg>
