<svg width="817" height="817" viewBox="0 0 817 817" fill="none" xmlns="http://www.w3.org/2000/svg">
<rect width="817" height="817" fill="black"/>
<path d="M318.858 283.896C318.858 283.896 347.922 220.533 355.772 216.912L343.395 210.716L328.073 221.36L326.717 233.889L324.297 233.813C324.297 233.813 299.868 196.312 298.274 185.143L291.568 183.487L287.576 187.713L300.988 221.968L284.172 188.09L279.416 185.534L274.771 188.346C274.771 188.346 279.57 211.635 290.566 230.352L272.093 203.18L265.388 201.523L260.942 204.766L282.738 249.443L263.203 240.607L250.91 232.008L243.514 236.611C243.514 236.611 291.708 271.479 293.446 277.832L318.864 283.955L318.858 283.896Z" fill="#FFBA00"/>
<path d="M522.638 300.189C522.638 300.189 493.574 236.826 485.725 233.206L498.101 227.01L513.423 237.654L514.779 250.183L517.199 250.107C517.199 250.107 541.628 212.606 543.222 201.437L549.928 199.78L553.92 204.007L540.508 238.261L557.324 204.384L562.08 201.828L566.725 204.64C566.725 204.64 561.926 227.929 550.93 246.645L569.403 219.473L576.108 217.817L580.554 221.06L558.758 265.737L578.293 256.901L590.586 248.302L597.982 252.905C597.982 252.905 549.788 287.772 548.05 294.126L522.632 300.249L522.638 300.189Z" fill="#FFBA00"/>
<path d="M566.962 407.701C546.064 356.406 549.864 289.913 549.864 289.913L508.068 265.216C508.068 265.216 547.964 451.396 540.365 466.595C540.365 466.595 504.269 263.316 489.07 261.416C475.582 259.725 448.624 255.052 442.753 254.026C444.026 251.081 445.033 247.871 445.755 244.47C449.421 226.802 443.323 210.596 432.133 208.279C420.943 205.961 408.899 218.405 405.232 236.073C403.94 242.323 403.883 248.384 404.814 253.722C399.533 252.791 363.266 246.522 357.984 250.036C352.285 253.836 270.593 436.217 259.194 430.517C247.796 424.818 333.287 253.817 333.287 253.817L291.491 265.216L228.798 348.807L206 417.2C206 417.2 209.8 508.39 215.499 508.39C221.198 508.39 249.581 525.489 276.236 508.39C276.236 508.39 344.685 388.703 354.184 335.508C354.184 335.508 352.285 392.502 333.287 424.799C314.289 457.096 253.495 624.278 253.495 624.278L215.499 633.777L206 655.891H325.725C325.725 655.891 399.894 492.508 403.636 447.255C407.379 402.001 430.177 362.106 430.177 362.106C430.177 362.106 418.968 427.915 412.223 447.255C412.223 447.255 360.036 638.128 357.11 655.891H545.342V630.832L452.955 601.462C452.955 601.462 449.156 407.682 464.354 388.684C464.354 388.684 471.953 373.485 468.154 489.373L473.853 582.464C473.853 582.464 540.346 626.159 561.244 586.263C582.142 546.367 587.841 458.976 566.943 407.682L566.962 407.701Z" fill="#FFBA00"/>
</svg>
